<?xml version="1.0"?>
<svg xmlns="http://www.w3.org/2000/svg" xmlns:xlink="http://www.w3.org/1999/xlink" xmlns:svgjs="http://svgjs.com/svgjs" version="1.1" width="512" height="512" x="0" y="0" viewBox="0 0 24 24" style="enable-background:new 0 0 512 512" xml:space="preserve"><g><path xmlns="http://www.w3.org/2000/svg" d="M13,3V1a1,1,0,0,0-2,0V3a7.008,7.008,0,0,0-7,7v6a8,8,0,0,0,16,0V10A7.008,7.008,0,0,0,13,3Zm5,13A6,6,0,0,1,6,16V10a5.006,5.006,0,0,1,5-5h2a5.006,5.006,0,0,1,5,5Z" fill="#ffffff" data-original="#000000"/><path xmlns="http://www.w3.org/2000/svg" d="M12,7a1,1,0,0,0-1,1v2a1,1,0,0,0,2,0V8A1,1,0,0,0,12,7Z" fill="#ffffff" data-original="#000000"/></g></svg>
